<svg xmlns="http://www.w3.org/2000/svg" xmlns:xlink="http://www.w3.org/1999/xlink" version="1.1" viewBox="100.96 647.78 798.08 204.44">
<defs>
<clipPath id="clip_1">
<path transform="matrix(1,0,0,-1,0,1500)" d="M0 1500H1000V0H0Z"></path>
</clipPath>
</defs>
<g>
<g clip-path="url(#clip_1)">
<path transform="matrix(1,0,0,-1,148.2088,707.0107)" d="M0 0C-1.578-4.465-2.437-9.269-2.437-14.274-2.437-19.278-1.578-24.072 0-28.537V-28.547C1.878-33.861 4.785-38.695 8.46-42.81 9.519-43.999 10.638-45.118 11.826-46.167 19.388-52.959 29.396-57.074 40.363-57.074H154.522V-85.611H40.363C29.396-85.611 19.388-81.486 11.826-74.704 6.523-69.969 2.417-63.916 0-57.074-1.578-61.539-2.437-66.343-2.437-71.348-2.437-76.352-1.578-81.146 0-85.611 2.417-92.453 6.523-98.506 11.826-103.251 19.388-110.033 29.396-114.158 40.363-114.158H154.522V-128.422C154.522-136.303 148.129-142.695 140.248-142.695H-30.984C-38.865-142.685-45.248-136.303-45.248-128.422V-114.158C-37.367-114.158-30.984-107.766-30.984-99.885V-28.537C-30.984-20.656-37.367-14.274-45.248-14.274V0C-37.367 0-30.984 6.393-30.984 14.274-30.984 22.154-37.367 28.537-45.248 28.537V42.81C-45.248 50.692-38.865 57.064-30.984 57.074H140.248C148.129 57.074 154.522 50.692 154.522 42.81V28.537H40.363C29.396 28.537 19.388 24.412 11.826 17.63 6.523 12.885 2.417 6.842 0 0" fill="#ffffff"></path>
<path transform="matrix(1,0,0,-1,302.7306,707.0107)" d="M0 0V-28.537H-114.158C-122.039-28.537-128.422-22.154-128.422-14.274-128.422-6.393-122.039 0-114.158 0Z" fill="#ffffff"></path>
<path transform="matrix(1,0,0,-1,367.3051,681.7716)" d="M0 0V-24.741C0-26.272 1.241-27.512 2.772-27.512H46.067C47.598-27.512 48.839-28.753 48.839-30.284V-52.893C48.839-54.423 47.598-55.664 46.067-55.664H2.772C1.241-55.664 0-56.905 0-58.436V-85.736C0-87.267 1.241-88.508 2.772-88.508H52.466C53.997-88.508 55.238-89.749 55.238-91.279V-114.955C55.238-116.485 53.997-117.726 52.466-117.726H-33.697C-35.228-117.726-36.469-116.485-36.469-114.955V29.218C-36.469 30.749-35.228 31.99-33.697 31.99H52.466C53.997 31.99 55.238 30.749 55.238 29.218V5.543C55.238 4.012 53.997 2.772 52.466 2.772H2.772C1.241 2.772 0 1.531 0 0" fill="#ffffff"></path>
<path transform="matrix(1,0,0,-1,502.5148,771.3459)" d="M0 0H42.229C43.76 0 45.001-1.241 45.001-2.771V-25.38C45.001-26.911 43.76-28.152 42.229-28.152H-36.469C-38-28.152-39.24-26.911-39.24-25.38V118.793C-39.24 120.323-38 121.564-36.469 121.564H-5.543C-4.012 121.564-2.772 120.323-2.772 118.793V2.771C-2.772 1.241-1.531 0 0 0" fill="#ffffff"></path>
<path transform="matrix(1,0,0,-1,618.5322,652.5533)" d="M0 0V-144.173C0-145.703-1.241-146.944-2.772-146.944H-33.698C-35.228-146.944-36.469-145.703-36.469-144.173V0C-36.469 1.531-35.228 2.771-33.698 2.771H-2.772C-1.241 2.771 0 1.531 0 0" fill="#ffffff"></path>
<path transform="matrix(1,0,0,-1,769.742,652.5533)" d="M0 0V-23.675C0-25.206-1.241-26.447-2.772-26.447H-36.897C-38.428-26.447-39.669-27.688-39.669-29.218V-144.173C-39.669-145.703-40.91-146.944-42.44-146.944H-73.366C-74.897-146.944-76.138-145.703-76.138-144.173V-29.218C-76.138-27.688-77.379-26.447-78.909-26.447H-113.035C-114.566-26.447-115.807-25.206-115.807-23.675V0C-115.807 1.531-114.566 2.771-113.035 2.771H-2.772C-1.241 2.771 0 1.531 0 0" fill="#ffffff"></path>
<path transform="matrix(1,0,0,-1,841.6104,681.7716)" d="M0 0V-24.741C0-26.272 1.241-27.512 2.771-27.512H46.068C47.598-27.512 48.839-28.753 48.839-30.284V-52.893C48.839-54.423 47.598-55.664 46.068-55.664H2.771C1.241-55.664 0-56.905 0-58.436V-85.736C0-87.267 1.241-88.508 2.771-88.508H52.466C53.997-88.508 55.238-89.749 55.238-91.279V-114.955C55.238-116.485 53.997-117.726 52.466-117.726H-33.697C-35.228-117.726-36.469-116.485-36.469-114.955V29.218C-36.469 30.749-35.228 31.99-33.697 31.99H52.466C53.997 31.99 55.238 30.749 55.238 29.218V5.543C55.238 4.012 53.997 2.772 52.466 2.772H2.771C1.241 2.772 0 1.531 0 0" fill="#ffffff"></path>
<path transform="matrix(1,0,0,-1,0,1500)" d="M335.217 650.085H331.269V680.325H335.217Z" fill="#ffffff"></path>
<path transform="matrix(1,0,0,-1,369.143,849.9148)" d="M0 0H-3.948L-19.827 24.078V0H-23.775V30.282H-19.827L-3.948 6.247V30.282H0Z" fill="#ffffff"></path>
<path transform="matrix(1,0,0,-1,403.0699,849.9148)" d="M0 0H-3.948L-19.827 24.078V0H-23.775V30.282H-19.827L-3.948 6.247V30.282H0Z" fill="#ffffff"></path>
<path transform="matrix(1,0,0,-1,432.6357,845.3159)" d="M0 0C1.692 .983 3.022 2.386 3.991 4.208 4.96 6.03 5.445 8.141 5.445 10.543 5.445 12.971 4.96 15.09 3.991 16.898 3.022 18.705 1.699 20.101 .022 21.084-1.656 22.068-3.566 22.56-5.706 22.56-7.846 22.56-9.755 22.068-11.432 21.084-13.109 20.101-14.434 18.705-15.401 16.898-16.372 15.09-16.855 12.971-16.855 10.543-16.855 8.141-16.372 6.03-15.401 4.208-14.434 2.386-13.103 .983-11.411 0-9.719-.984-7.818-1.475-5.706-1.475-3.594-1.475-1.692-.984 0 0M-13.384-2.929C-15.699-1.613-17.528 .224-18.873 2.582-20.218 4.938-20.89 7.592-20.89 10.543-20.89 13.492-20.218 16.146-18.873 18.504-17.528 20.86-15.699 22.697-13.384 24.013-11.07 25.329-8.512 25.988-5.706 25.988-2.871 25.988-.298 25.329 2.017 24.013 4.331 22.697 6.153 20.868 7.484 18.526 8.814 16.182 9.479 13.521 9.479 10.543 9.479 7.563 8.814 4.902 7.484 2.56 6.153 .217 4.331-1.613 2.017-2.929-.298-4.245-2.871-4.902-5.706-4.902-8.512-4.902-11.07-4.245-13.384-2.929" fill="#ffffff"></path>
<path transform="matrix(1,0,0,-1,475.7379,819.6752)" d="M0 0-11.41-30.24H-15.965L-27.376 0H-23.166L-13.666-26.075-4.166 0Z" fill="#ffffff"></path>
<path transform="matrix(1,0,0,-1,500.2483,839.9803)" d="M0 0-5.464 15.271-10.931 0ZM1.129-3.21H-12.06L-14.49-9.935H-18.653L-7.722 20.131H-3.165L7.725-9.935H3.559Z" fill="#ffffff"></path>
<path transform="matrix(1,0,0,-1,534.782,819.6752)" d="M0 0V-3.21H-8.241V-30.24H-12.191V-3.21H-20.476V0Z" fill="#ffffff"></path>
<path transform="matrix(1,0,0,-1,0,1500)" d="M547.017 650.085H543.07V680.325H547.017Z" fill="#ffffff"></path>
<path transform="matrix(1,0,0,-1,576.5838,845.3159)" d="M0 0C1.692 .983 3.02 2.386 3.991 4.208 4.958 6.03 5.445 8.141 5.445 10.543 5.445 12.971 4.958 15.09 3.991 16.898 3.02 18.705 1.697 20.101 .022 21.084-1.656 22.068-3.567 22.56-5.707 22.56-7.848 22.56-9.755 22.068-11.434 21.084-13.109 20.101-14.435 18.705-15.403 16.898-16.373 15.09-16.857 12.971-16.857 10.543-16.857 8.141-16.373 6.03-15.403 4.208-14.435 2.386-13.104 .983-11.412 0-9.72-.984-7.818-1.475-5.707-1.475-3.594-1.475-1.692-.984 0 0M-13.385-2.929C-15.701-1.613-17.529 .224-18.874 2.582-20.219 4.938-20.891 7.592-20.891 10.543-20.891 13.492-20.219 16.146-18.874 18.504-17.529 20.86-15.701 22.697-13.385 24.013-11.07 25.329-8.512 25.988-5.707 25.988-2.873 25.988-.298 25.329 2.017 24.013 4.33 22.697 6.153 20.868 7.484 18.526 8.813 16.182 9.479 13.521 9.479 10.543 9.479 7.563 8.813 4.902 7.484 2.56 6.153 .217 4.33-1.613 2.017-2.929-.298-4.245-2.873-4.902-5.707-4.902-8.512-4.902-11.07-4.245-13.385-2.929" fill="#ffffff"></path>
<path transform="matrix(1,0,0,-1,618.4704,849.9148)" d="M0 0H-3.947L-19.825 24.078V0H-23.775V30.282H-19.825L-3.947 6.247V30.282H0Z" fill="#ffffff"></path>
<path transform="matrix(1,0,0,-1,647.8626,849.1549)" d="M0 0C-1.574 .708-2.813 1.692-3.709 2.949-4.606 4.208-5.068 5.661-5.098 7.309H-.888C-.744 5.892-.159 4.699 .869 3.731 1.894 2.761 3.392 2.277 5.36 2.277 7.238 2.277 8.722 2.747 9.805 3.687 10.89 4.626 11.434 5.834 11.434 7.309 11.434 8.467 11.114 9.407 10.48 10.13 9.843 10.852 9.048 11.402 8.094 11.778 7.137 12.154 5.849 12.559 4.231 12.993 2.236 13.514 .637 14.035-.563 14.555-1.763 15.076-2.791 15.892-3.644 17.006-4.496 18.12-4.923 19.616-4.923 21.497-4.923 23.145-4.505 24.605-3.666 25.878-2.826 27.151-1.648 28.135-.128 28.828 1.389 29.522 3.132 29.869 5.098 29.869 7.932 29.869 10.253 29.16 12.062 27.744 13.869 26.327 14.889 24.446 15.121 22.104H10.783C10.638 23.26 10.029 24.279 8.96 25.162 7.889 26.044 6.473 26.485 4.71 26.485 3.059 26.485 1.714 26.059 .672 25.206-.366 24.352-.888 23.159-.888 21.627-.888 20.526-.577 19.631 .044 18.937 .667 18.243 1.432 17.714 2.345 17.353 3.255 16.991 4.535 16.579 6.183 16.116 8.178 15.567 9.786 15.024 10.999 14.49 12.213 13.954 13.254 13.13 14.123 12.017 14.99 10.904 15.425 9.392 15.425 7.483 15.425 6.008 15.034 4.619 14.252 3.318 13.473 2.017 12.314 .961 10.783 .152 9.25-.659 7.44-1.063 5.36-1.063 3.362-1.063 1.577-.709 0 0" fill="#ffffff"></path>
<path transform="matrix(1,0,0,-1,691.9413,845.3159)" d="M0 0C1.692 .983 3.023 2.386 3.991 4.208 4.961 6.03 5.445 8.141 5.445 10.543 5.445 12.971 4.961 15.09 3.991 16.898 3.023 18.705 1.7 20.101 .022 21.084-1.656 22.068-3.564 22.56-5.705 22.56-7.845 22.56-9.755 22.068-11.431 21.084-13.109 20.101-14.432 18.705-15.4 16.898-16.37 15.09-16.854 12.971-16.854 10.543-16.854 8.141-16.37 6.03-15.4 4.208-14.432 2.386-13.101 .983-11.409 0-9.717-.984-7.818-1.475-5.705-1.475-3.594-1.475-1.692-.984 0 0M-13.383-2.929C-15.698-1.613-17.527 .224-18.871 2.582-20.216 4.938-20.889 7.592-20.889 10.543-20.889 13.492-20.216 16.146-18.871 18.504-17.527 20.86-15.698 22.697-13.383 24.013-11.07 25.329-8.512 25.988-5.705 25.988-2.87 25.988-.298 25.329 2.017 24.013 4.332 22.697 6.153 20.868 7.484 18.526 8.815 16.182 9.479 13.521 9.479 10.543 9.479 7.563 8.815 4.902 7.484 2.56 6.153 .217 4.332-1.613 2.017-2.929-.298-4.245-2.87-4.902-5.705-4.902-8.512-4.902-11.07-4.245-13.383-2.929" fill="#ffffff"></path>
<path transform="matrix(1,0,0,-1,714.0026,846.7044)" d="M0 0H10.586V-3.21H-3.95V27.029H0Z" fill="#ffffff"></path>
<path transform="matrix(1,0,0,-1,736.0857,819.6752)" d="M0 0V-19.134C0-21.823 .656-23.819 1.974-25.12 3.288-26.422 5.117-27.073 7.459-27.073 9.775-27.073 11.59-26.422 12.904-25.12 14.222-23.819 14.881-21.823 14.881-19.134V0H18.828V-19.09C18.828-21.606 18.322-23.725 17.308-25.445 16.297-27.167 14.93-28.446 13.211-29.286 11.488-30.125 9.559-30.543 7.418-30.543 5.275-30.543 3.346-30.125 1.626-29.286-.096-28.446-1.454-27.167-2.452-25.445-3.45-23.725-3.95-21.606-3.95-19.09V0Z" fill="#ffffff"></path>
<path transform="matrix(1,0,0,-1,783.5457,819.6752)" d="M0 0V-3.21H-8.241V-30.24H-12.191V-3.21H-20.476V0Z" fill="#ffffff"></path>
<path transform="matrix(1,0,0,-1,0,1500)" d="M795.78 650.085H791.833V680.325H795.78Z" fill="#ffffff"></path>
<path transform="matrix(1,0,0,-1,825.3475,845.3159)" d="M0 0C1.692 .983 3.02 2.386 3.991 4.208 4.958 6.03 5.445 8.141 5.445 10.543 5.445 12.971 4.958 15.09 3.991 16.898 3.02 18.705 1.697 20.101 .022 21.084-1.656 22.068-3.567 22.56-5.707 22.56-7.848 22.56-9.755 22.068-11.434 21.084-13.109 20.101-14.435 18.705-15.403 16.898-16.373 15.09-16.857 12.971-16.857 10.543-16.857 8.141-16.373 6.03-15.403 4.208-14.435 2.386-13.104 .983-11.412 0-9.72-.984-7.818-1.475-5.707-1.475-3.594-1.475-1.692-.984 0 0M-13.385-2.929C-15.701-1.613-17.529 .224-18.874 2.582-20.219 4.938-20.891 7.592-20.891 10.543-20.891 13.492-20.219 16.146-18.874 18.504-17.529 20.86-15.701 22.697-13.385 24.013-11.07 25.329-8.512 25.988-5.707 25.988-2.873 25.988-.298 25.329 2.017 24.013 4.33 22.697 6.153 20.868 7.484 18.526 8.812 16.182 9.479 13.521 9.479 10.543 9.479 7.563 8.812 4.902 7.484 2.56 6.153 .217 4.33-1.613 2.017-2.929-.298-4.245-2.873-4.902-5.707-4.902-8.512-4.902-11.07-4.245-13.385-2.929" fill="#ffffff"></path>
<path transform="matrix(1,0,0,-1,867.234,849.9148)" d="M0 0H-3.95L-19.828 24.078V0H-23.775V30.282H-19.828L-3.95 6.247V30.282H0Z" fill="#ffffff"></path>
<path transform="matrix(1,0,0,-1,881.6144,849.1549)" d="M0 0C-1.574 .708-2.813 1.692-3.709 2.949-4.606 4.208-5.068 5.661-5.098 7.309H-.888C-.744 5.892-.159 4.699 .869 3.731 1.894 2.761 3.392 2.277 5.36 2.277 7.238 2.277 8.722 2.747 9.805 3.687 10.89 4.626 11.434 5.834 11.434 7.309 11.434 8.467 11.114 9.407 10.48 10.13 9.843 10.852 9.047 11.402 8.094 11.778 7.137 12.154 5.849 12.559 4.231 12.993 2.236 13.514 .637 14.035-.563 14.555-1.763 15.076-2.791 15.892-3.644 17.006-4.496 18.12-4.923 19.616-4.923 21.497-4.923 23.145-4.505 24.605-3.666 25.878-2.826 27.151-1.648 28.135-.128 28.828 1.389 29.522 3.132 29.869 5.098 29.869 7.932 29.869 10.253 29.16 12.062 27.744 13.869 26.327 14.889 24.446 15.121 22.104H10.783C10.638 23.26 10.029 24.279 8.96 25.162 7.889 26.044 6.473 26.485 4.71 26.485 3.059 26.485 1.714 26.059 .672 25.206-.366 24.352-.888 23.159-.888 21.627-.888 20.526-.577 19.631 .044 18.937 .667 18.243 1.432 17.714 2.345 17.353 3.255 16.991 4.535 16.579 6.183 16.116 8.178 15.567 9.786 15.024 10.999 14.49 12.213 13.954 13.254 13.13 14.123 12.017 14.99 10.904 15.424 9.392 15.424 7.483 15.424 6.008 15.034 4.619 14.252 3.318 13.473 2.017 12.314 .961 10.783 .152 9.25-.659 7.44-1.063 5.36-1.063 3.362-1.063 1.577-.709 0 0" fill="#ffffff"></path>
</g>
</g>
</svg>
