<svg xmlns="http://www.w3.org/2000/svg" xmlns:xlink="http://www.w3.org/1999/xlink" version="1.1" viewBox="126.16 126.16 747.68 747.68">
<defs>
<clipPath id="clip_1">
<path transform="matrix(1,0,0,-1,0,1000)" d="M0 1000H1000V0H0Z"></path>
</clipPath>
</defs>
<g>
<g clip-path="url(#clip_1)">
<path transform="matrix(1,0,0,-1,296.604,340.6302)" d="M0 0C-5.875-16.621-9.073-34.507-9.073-53.136-9.073-71.765-5.875-89.614 0-106.235V-106.272C6.991-126.053 17.811-144.05 31.495-159.37 35.436-163.795 39.601-167.959 44.026-171.864 72.174-197.149 109.432-212.469 150.26-212.469H575.235V-318.703H150.26C109.432-318.703 72.174-303.347 44.026-278.099 24.281-260.473 8.999-237.94 0-212.469-5.875-229.09-9.073-246.975-9.073-265.604-9.073-284.234-5.875-302.082 0-318.703 8.999-344.174 24.281-366.708 44.026-384.371 72.174-409.619 109.432-424.975 150.26-424.975H575.235V-478.074C575.235-507.411 551.438-531.209 522.099-531.209H-115.344C-144.682-531.172-168.443-507.411-168.443-478.074V-424.975C-139.105-424.975-115.344-401.178-115.344-371.839V-106.235C-115.344-76.896-139.105-53.136-168.443-53.136V0C-139.105 0-115.344 23.797-115.344 53.136-115.344 82.474-139.105 106.235-168.443 106.235V159.37C-168.443 188.708-144.682 212.431-115.344 212.469H522.099C551.438 212.469 575.235 188.708 575.235 159.37V106.235H150.26C109.432 106.235 72.174 90.877 44.026 65.629 24.281 47.967 8.999 25.471 0 0" fill="#ffffff"></path>
<path transform="matrix(1,0,0,-1,871.8391,340.6302)" d="M0 0V-106.235H-424.975C-454.313-106.235-478.074-82.474-478.074-53.136-478.074-23.797-454.313 0-424.975 0Z" fill="#ffffff"></path>
</g>
</g>
</svg>
