<svg xmlns="http://www.w3.org/2000/svg" style="display:none" aria-hidden="true">
  <!--
    Elite ERP presentation icon set — one unified language:
    24×24 grid · 1.7px stroke · round caps/joins · currentColor · no fills.
    Symbols are inlined into index.html at build time (file:// blocks external <use>).
  -->

  <!-- ═══ Module icons ═══ -->
  <symbol id="i-crm" viewBox="0 0 24 24" fill="none" stroke="currentColor" stroke-width="1.7" stroke-linecap="round" stroke-linejoin="round">
    <circle cx="9" cy="8" r="3.2"/><path d="M3.5 19.5c0-3 2.5-5 5.5-5s5.5 2 5.5 5"/><path d="M16 4.6a3.2 3.2 0 0 1 0 6.8"/><path d="M17.8 14.8c1.7.7 2.9 2 3.2 4.7"/>
  </symbol>
  <symbol id="i-sales" viewBox="0 0 24 24" fill="none" stroke="currentColor" stroke-width="1.7" stroke-linecap="round" stroke-linejoin="round">
    <path d="M4 4h2l2.4 11.2a1.5 1.5 0 0 0 1.5 1.3h7.6a1.5 1.5 0 0 0 1.5-1.2L20.5 8H7"/><circle cx="10.5" cy="20" r="1.4"/><circle cx="17" cy="20" r="1.4"/>
  </symbol>
  <symbol id="i-finance" viewBox="0 0 24 24" fill="none" stroke="currentColor" stroke-width="1.7" stroke-linecap="round" stroke-linejoin="round">
    <rect x="3.5" y="5" width="17" height="14" rx="2.5"/><path d="M3.5 10h17"/><path d="M7.5 15h3"/>
  </symbol>
  <symbol id="i-hr" viewBox="0 0 24 24" fill="none" stroke="currentColor" stroke-width="1.7" stroke-linecap="round" stroke-linejoin="round">
    <circle cx="12" cy="7.5" r="3.4"/><path d="M5 20c.6-3.6 3.4-5.6 7-5.6s6.4 2 7 5.6"/>
  </symbol>
  <symbol id="i-procurement" viewBox="0 0 24 24" fill="none" stroke="currentColor" stroke-width="1.7" stroke-linecap="round" stroke-linejoin="round">
    <path d="M5 8h14l-1.2 11a2 2 0 0 1-2 1.8H8.2a2 2 0 0 1-2-1.8L5 8Z"/><path d="M8.5 10.5V6.8a3.5 3.5 0 0 1 7 0v3.7"/>
  </symbol>
  <symbol id="i-inventory" viewBox="0 0 24 24" fill="none" stroke="currentColor" stroke-width="1.7" stroke-linecap="round" stroke-linejoin="round">
    <path d="M3.8 8.2 12 4l8.2 4.2v7.6L12 20l-8.2-4.2Z"/><path d="M3.8 8.2 12 12.4l8.2-4.2"/><path d="M12 12.4V20"/>
  </symbol>
  <symbol id="i-projects" viewBox="0 0 24 24" fill="none" stroke="currentColor" stroke-width="1.7" stroke-linecap="round" stroke-linejoin="round">
    <rect x="3.5" y="4.5" width="5" height="15" rx="1.5"/><rect x="10.5" y="4.5" width="5" height="10" rx="1.5"/><rect x="17.5" y="4.5" width="3" height="6.5" rx="1.5"/>
  </symbol>
  <symbol id="i-analytics" viewBox="0 0 24 24" fill="none" stroke="currentColor" stroke-width="1.7" stroke-linecap="round" stroke-linejoin="round">
    <path d="M4 19.5h16"/><path d="M6.5 15.5V11"/><path d="M11 15.5V7"/><path d="M15.5 15.5v-3"/><path d="M20 15.5V5"/>
  </symbol>
  <symbol id="i-ai" viewBox="0 0 24 24" fill="none" stroke="currentColor" stroke-width="1.7" stroke-linecap="round" stroke-linejoin="round">
    <path d="M12 3.5 13.6 8l4.5 1.6-4.5 1.6L12 15.6l-1.6-4.4L5.9 9.6 10.4 8Z"/><path d="M18.5 14.5l.9 2.4 2.4.9-2.4.9-.9 2.4-.9-2.4-2.4-.9 2.4-.9Z"/>
  </symbol>
  <symbol id="i-security" viewBox="0 0 24 24" fill="none" stroke="currentColor" stroke-width="1.7" stroke-linecap="round" stroke-linejoin="round">
    <path d="M12 3.5 19 6v5.5c0 4.4-2.9 7.6-7 9-4.1-1.4-7-4.6-7-9V6Z"/><path d="m9.2 12 2 2 3.6-3.8"/>
  </symbol>

  <!-- ═══ Benefit / outcome icons ═══ -->
  <symbol id="i-decisions" viewBox="0 0 24 24" fill="none" stroke="currentColor" stroke-width="1.7" stroke-linecap="round" stroke-linejoin="round">
    <circle cx="12" cy="12" r="8.2"/><circle cx="12" cy="12" r="4.6"/><circle cx="12" cy="12" r="1.1" fill="currentColor" stroke="none"/>
  </symbol>
  <symbol id="i-speed" viewBox="0 0 24 24" fill="none" stroke="currentColor" stroke-width="1.7" stroke-linecap="round" stroke-linejoin="round">
    <path d="M13.5 3.5 5 13.5h5.5L10 20.5l8.5-10H13Z"/>
  </symbol>
  <symbol id="i-unified" viewBox="0 0 24 24" fill="none" stroke="currentColor" stroke-width="1.7" stroke-linecap="round" stroke-linejoin="round">
    <ellipse cx="12" cy="6" rx="7.5" ry="2.8"/><path d="M4.5 6v12c0 1.5 3.4 2.8 7.5 2.8s7.5-1.3 7.5-2.8V6"/><path d="M4.5 12c0 1.5 3.4 2.8 7.5 2.8s7.5-1.3 7.5-2.8"/>
  </symbol>
  <symbol id="i-productivity" viewBox="0 0 24 24" fill="none" stroke="currentColor" stroke-width="1.7" stroke-linecap="round" stroke-linejoin="round">
    <path d="M4 17.5 10 11l3.6 3.6 6.4-7"/><path d="M15 7.6h5v5"/>
  </symbol>
  <symbol id="i-growth" viewBox="0 0 24 24" fill="none" stroke="currentColor" stroke-width="1.7" stroke-linecap="round" stroke-linejoin="round">
    <path d="M12 20.5V11"/><path d="M12 11c0-3.8 2.7-6.5 6.5-6.5 0 3.8-2.7 6.5-6.5 6.5Z"/><path d="M12 14c0-2.9-2-4.9-4.9-4.9 0 2.9 2 4.9 4.9 4.9Z"/>
  </symbol>
  <symbol id="i-collab" viewBox="0 0 24 24" fill="none" stroke="currentColor" stroke-width="1.7" stroke-linecap="round" stroke-linejoin="round">
    <circle cx="7.5" cy="9" r="2.6"/><circle cx="16.5" cy="9" r="2.6"/><path d="M3.5 18.5c.4-2.7 2-4.3 4-4.3 1.2 0 2.2.5 3 1.5.8-1 1.8-1.5 3-1.5 2 0 3.6 1.6 4 4.3"/>
  </symbol>
  <symbol id="i-automation" viewBox="0 0 24 24" fill="none" stroke="currentColor" stroke-width="1.7" stroke-linecap="round" stroke-linejoin="round">
    <circle cx="12" cy="12" r="3"/><path d="M12 4.5V3M12 21v-1.5M19.5 12H21M3 12h1.5M17.3 6.7l1-1M5.7 18.3l1-1M17.3 17.3l1 1M5.7 5.7l1 1"/>
  </symbol>

  <!-- ═══ Challenge icons (slide 03) ═══ -->
  <symbol id="i-silo" viewBox="0 0 24 24" fill="none" stroke="currentColor" stroke-width="1.7" stroke-linecap="round" stroke-linejoin="round">
    <rect x="3.5" y="4" width="7" height="7" rx="1.5"/><rect x="13.5" y="13" width="7" height="7" rx="1.5"/><path d="M10.5 16.5H8a2 2 0 0 1-2-2V13"/><path d="M13.5 7.5H16a2 2 0 0 1 2 2V11" stroke-dasharray="2.4 2.6"/>
  </symbol>
  <symbol id="i-manual" viewBox="0 0 24 24" fill="none" stroke="currentColor" stroke-width="1.7" stroke-linecap="round" stroke-linejoin="round">
    <path d="M13.5 5.5 18 10l-8.5 8.5H5V14Z"/><path d="M11.5 7.5 16 12"/><path d="M14 19.5h6"/>
  </symbol>
  <symbol id="i-duplicate" viewBox="0 0 24 24" fill="none" stroke="currentColor" stroke-width="1.7" stroke-linecap="round" stroke-linejoin="round">
    <rect x="8.5" y="8.5" width="12" height="12" rx="2"/><path d="M15.5 5.5v-.7a2 2 0 0 0-2-2H5.3a2 2 0 0 0-2 2v8.4a2 2 0 0 0 2 2H6"/>
  </symbol>
  <symbol id="i-delay" viewBox="0 0 24 24" fill="none" stroke="currentColor" stroke-width="1.7" stroke-linecap="round" stroke-linejoin="round">
    <circle cx="12" cy="13" r="7.5"/><path d="M12 9v4.2l2.8 1.8"/><path d="M9.5 3h5"/>
  </symbol>
  <symbol id="i-blind" viewBox="0 0 24 24" fill="none" stroke="currentColor" stroke-width="1.7" stroke-linecap="round" stroke-linejoin="round">
    <path d="M4 4l16 16"/><path d="M9.9 6.2A9.4 9.4 0 0 1 12 6c4.4 0 7.9 2.7 9.5 6-.6 1.2-1.4 2.3-2.4 3.2M6.4 6.9C4.6 8.1 3.3 9.9 2.5 12c1.6 3.3 5.1 6 9.5 6 1.3 0 2.5-.2 3.6-.7"/><path d="M9.9 9.9a3 3 0 0 0 4.2 4.2"/>
  </symbol>
  <symbol id="i-decision-delay" viewBox="0 0 24 24" fill="none" stroke="currentColor" stroke-width="1.7" stroke-linecap="round" stroke-linejoin="round">
    <path d="M6.5 3.5h11"/><path d="M6.5 20.5h11"/><path d="M8 3.5v3.2c0 2.6 4 3.9 4 5.3 0 1.4-4 2.7-4 5.3v3.2"/><path d="M16 3.5v3.2c0 2.6-4 3.9-4 5.3 0 1.4 4 2.7 4 5.3v3.2"/>
  </symbol>

  <!-- ═══ Chrome / UI icons ═══ -->
  <symbol id="i-arrow-left" viewBox="0 0 24 24" fill="none" stroke="currentColor" stroke-width="1.7" stroke-linecap="round" stroke-linejoin="round">
    <path d="M19 12H5"/><path d="m11 6-6 6 6 6"/>
  </symbol>
  <symbol id="i-arrow-right" viewBox="0 0 24 24" fill="none" stroke="currentColor" stroke-width="1.7" stroke-linecap="round" stroke-linejoin="round">
    <path d="M5 12h14"/><path d="m13 6 6 6-6 6"/>
  </symbol>
  <symbol id="i-fullscreen" viewBox="0 0 24 24" fill="none" stroke="currentColor" stroke-width="1.7" stroke-linecap="round" stroke-linejoin="round">
    <path d="M8.5 3.5H5.5a2 2 0 0 0-2 2v3M15.5 3.5h3a2 2 0 0 1 2 2v3M8.5 20.5H5.5a2 2 0 0 1-2-2v-3M15.5 20.5h3a2 2 0 0 0 2-2v-3"/>
  </symbol>
  <symbol id="i-globe" viewBox="0 0 24 24" fill="none" stroke="currentColor" stroke-width="1.7" stroke-linecap="round" stroke-linejoin="round">
    <circle cx="12" cy="12" r="8.5"/><path d="M3.5 12h17"/><path d="M12 3.5c2.4 2.3 3.6 5.2 3.6 8.5s-1.2 6.2-3.6 8.5c-2.4-2.3-3.6-5.2-3.6-8.5S9.6 5.8 12 3.5Z"/>
  </symbol>
  <symbol id="i-check" viewBox="0 0 24 24" fill="none" stroke="currentColor" stroke-width="1.9" stroke-linecap="round" stroke-linejoin="round">
    <path d="m4.5 12.5 5 5 10-11"/>
  </symbol>
</svg>
